<svg width="23" height="23" viewBox="0 0 23 23" fill="none" xmlns="http://www.w3.org/2000/svg">
<path d="M6.42402 0C3.05386 0 0.312012 2.74185 0.312012 6.11201V15.8912C0.312012 19.2614 3.05386 22.0032 6.42402 22.0032H16.2032C19.5734 22.0032 22.3153 19.2614 22.3153 15.8912V6.11201C22.3153 2.74185 19.5734 0 16.2032 0H6.42402ZM6.42402 2.4448H16.2032C18.2251 2.4448 19.8704 4.09016 19.8704 6.11201V15.8912C19.8704 17.9131 18.2251 19.5584 16.2032 19.5584H6.42402C4.40217 19.5584 2.75682 17.9131 2.75682 15.8912V6.11201C2.75682 4.09016 4.40217 2.4448 6.42402 2.4448ZM17.4256 3.66721C17.1014 3.66721 16.7905 3.796 16.5613 4.02524C16.332 4.25449 16.2032 4.56541 16.2032 4.88961C16.2032 5.21381 16.332 5.52473 16.5613 5.75398C16.7905 5.98322 17.1014 6.11201 17.4256 6.11201C17.7498 6.11201 18.0608 5.98322 18.29 5.75398C18.5193 5.52473 18.648 5.21381 18.648 4.88961C18.648 4.56541 18.5193 4.25449 18.29 4.02524C18.0608 3.796 17.7498 3.66721 17.4256 3.66721ZM11.3136 4.88961C7.94347 4.88961 5.20162 7.63146 5.20162 11.0016C5.20162 14.3718 7.94347 17.1136 11.3136 17.1136C14.6838 17.1136 17.4256 14.3718 17.4256 11.0016C17.4256 7.63146 14.6838 4.88961 11.3136 4.88961ZM11.3136 7.33441C13.3355 7.33441 14.9808 8.97977 14.9808 11.0016C14.9808 13.0235 13.3355 14.6688 11.3136 14.6688C9.29178 14.6688 7.64643 13.0235 7.64643 11.0016C7.64643 8.97977 9.29178 7.33441 11.3136 7.33441Z" fill="white"/>
</svg>
