<svg width="80" height="81" viewBox="10 8 60 60" fill="none" xmlns="http://www.w3.org/2000/svg">
<g filter="url(#filter0_ddi_14_25)">
<rect x="10.0022" y="8" width="60" height="60" rx="30" fill="#0E1011"/>
</g>
<path d="M30.0022 34.3125C30.0022 33.7257 30.4779 33.25 31.0647 33.25H49.9397C50.5265 33.25 51.0022 33.7257 51.0022 34.3125V43.06C51.0022 47.5832 47.3354 51.25 42.8122 51.25H38.1922C33.669 51.25 30.0022 47.5832 30.0022 43.06V34.3125Z" stroke="white" stroke-width="1.74"/>
<path d="M45.0022 36V28.5C45.0022 26.0147 42.9875 24 40.5022 24V24C38.0169 24 36.0022 26.0147 36.0022 28.5V36" stroke="white" stroke-width="1.74"/>
<g filter="url(#filter1_d_14_25)">
<circle cx="50.0022" cy="48" r="5" fill="url(#paint0_linear_14_25)"/>
</g>
<path d="M50.5027 50H49.7898V47.5586H48.9573V47.085C49.177 47.0752 49.3308 47.0605 49.4187 47.041C49.5587 47.0101 49.6726 46.9482 49.7605 46.8555C49.8207 46.792 49.8663 46.7074 49.8972 46.6016C49.9151 46.5381 49.9241 46.4909 49.9241 46.46H50.5027V50Z" fill="white"/>
<defs>
<filter id="filter0_ddi_14_25" x="0.00219727" y="0" width="79" height="81" filterUnits="userSpaceOnUse" color-interpolation-filters="sRGB">
<feFlood flood-opacity="0" result="BackgroundImageFix"/>
<feColorMatrix in="SourceAlpha" type="matrix" values="0 0 0 0 0 0 0 0 0 0 0 0 0 0 0 0 0 0 127 0" result="hardAlpha"/>
<feOffset dx="1" dy="5"/>
<feGaussianBlur stdDeviation="4"/>
<feComposite in2="hardAlpha" operator="out"/>
<feColorMatrix type="matrix" values="0 0 0 0 0.0117647 0 0 0 0 0.0117647 0 0 0 0 0.0117647 0 0 0 0.15 0"/>
<feBlend mode="normal" in2="BackgroundImageFix" result="effect1_dropShadow_14_25"/>
<feColorMatrix in="SourceAlpha" type="matrix" values="0 0 0 0 0 0 0 0 0 0 0 0 0 0 0 0 0 0 127 0" result="hardAlpha"/>
<feOffset dx="-2"/>
<feGaussianBlur stdDeviation="4"/>
<feComposite in2="hardAlpha" operator="out"/>
<feColorMatrix type="matrix" values="0 0 0 0 0.010625 0 0 0 0 0.011875 0 0 0 0 0.0125 0 0 0 0.15 0"/>
<feBlend mode="normal" in2="effect1_dropShadow_14_25" result="effect2_dropShadow_14_25"/>
<feBlend mode="normal" in="SourceGraphic" in2="effect2_dropShadow_14_25" result="shape"/>
<feColorMatrix in="SourceAlpha" type="matrix" values="0 0 0 0 0 0 0 0 0 0 0 0 0 0 0 0 0 0 127 0" result="hardAlpha"/>
<feOffset dx="1" dy="2"/>
<feGaussianBlur stdDeviation="1.5"/>
<feComposite in2="hardAlpha" operator="arithmetic" k2="-1" k3="1"/>
<feColorMatrix type="matrix" values="0 0 0 0 0.0117647 0 0 0 0 0.0117647 0 0 0 0 0.0117647 0 0 0 0.15 0"/>
<feBlend mode="normal" in2="shape" result="effect3_innerShadow_14_25"/>
</filter>
<filter id="filter1_d_14_25" x="42.6322" y="41.63" width="16.74" height="16.74" filterUnits="userSpaceOnUse" color-interpolation-filters="sRGB">
<feFlood flood-opacity="0" result="BackgroundImageFix"/>
<feColorMatrix in="SourceAlpha" type="matrix" values="0 0 0 0 0 0 0 0 0 0 0 0 0 0 0 0 0 0 127 0" result="hardAlpha"/>
<feOffset dx="1" dy="2"/>
<feGaussianBlur stdDeviation="1.685"/>
<feColorMatrix type="matrix" values="0 0 0 0 0.725 0 0 0 0 0.934 0 0 0 0 1 0 0 0 0.15 0"/>
<feBlend mode="normal" in2="BackgroundImageFix" result="effect1_dropShadow_14_25"/>
<feBlend mode="normal" in="SourceGraphic" in2="effect1_dropShadow_14_25" result="shape"/>
</filter>
<linearGradient id="paint0_linear_14_25" x1="39.7734" y1="43.5229" x2="50.7723" y2="40.2338" gradientUnits="userSpaceOnUse">
<stop stop-color="#99E7FF"/>
<stop offset="1" stop-color="#63ABC2"/>
</linearGradient>
</defs>
</svg>
