<svg width="160" height="49" viewBox="0 0 160 49" fill="none" xmlns="http://www.w3.org/2000/svg">
<g filter="url(#filter0_d_5_24)">
<path d="M6.01831 26.748C4.03697 26.748 2.53859 26.1908 1.52315 25.0763C0.507717 23.937 0 22.3148 0 20.2096V18.7236H3.86361V20.5068C3.86361 22.191 4.56946 23.033 5.98116 23.033C6.67463 23.033 7.32072 22.974 7.80678 22.3962C8.30584 21.8029 8.09871 20.8922 8.09871 20.4325C8.09871 19.9728 7.85104 18.3893 7.35571 17.572C6.86038 16.7299 5.94401 15.7269 4.60661 14.5628C2.92247 13.0768 1.74605 11.7394 1.07735 10.5506C0.408651 9.33705 0.0743 7.97488 0.0743 6.46411C0.0743 4.40847 0.594401 2.8234 1.6346 1.7089C2.6748 0.569634 4.18557 0 6.16691 0C8.12348 0 9.5971 0.569634 10.5878 1.7089C11.6032 2.8234 12.1109 4.43324 12.1109 6.53841V7.61576H8.31042L8.47017 6.46411C8.47017 5.57251 8.07394 4.74282 7.72721 4.34656C7.38048 3.92552 6.87276 3.71501 6.20406 3.71501C4.84189 3.71501 4.16081 4.54469 4.16081 6.20406C4.16081 7.14519 4.40847 8.02441 4.90381 8.84171C5.42391 9.65901 6.35266 10.6497 7.69006 11.8137C9.39896 13.2997 10.5754 14.6495 11.2193 15.8631C11.8632 17.0766 12.1852 18.5007 12.1852 20.1353C12.1852 22.2653 11.6527 23.8999 10.5878 25.0391C9.54756 26.1784 8.02441 26.748 6.01831 26.748Z" fill="white"/>
<path d="M16.3858 0.3715H22.2183L24.8188 20.3105H24.8931L27.4936 0.3715H33.3262V26.3765H29.4626V6.68701H29.3883L26.4163 26.3765H22.9985L20.0265 6.68701H19.9522V26.3765H16.3858V0.3715Z" fill="white"/>
<path d="M44.1401 26.748C42.134 26.748 40.5984 26.1784 39.5335 25.0391C38.4685 23.8999 37.936 22.29 37.936 20.2096V6.53841C37.936 4.45801 38.4685 2.84817 39.5335 1.7089C40.5984 0.569634 42.134 0 44.1401 0C46.1462 0 47.6817 0.569634 48.7467 1.7089C49.8116 2.84817 50.3441 4.45801 50.3441 6.53841V20.2096C50.3441 22.29 49.8116 23.8999 48.7467 25.0391C47.6817 26.1784 46.1462 26.748 44.1401 26.748ZM44.1401 22.3962C45.5518 22.3962 46.2576 22.1786 46.2576 20.4697V6.27836C46.2576 4.56946 45.5518 3.84769 44.1401 3.84769C42.7284 3.84769 42.0225 4.56946 42.0225 6.27836V20.4697C42.0225 22.1786 42.7284 22.3962 44.1401 22.3962Z" fill="white"/>
<path d="M56.292 0.3715H60.3785V11.3308L65.5795 0.3715H69.666L64.7994 9.91906L69.7403 26.3765H65.4681L62.0131 15.0988L60.3785 18.0921V26.3765H56.292V0.3715Z" fill="white"/>
<path d="M73.532 0.3715H84.677V4.08651H77.6185V10.9593H82.7703V14.6743H77.6185V22.6615H84.677V26.3765H73.532V0.3715Z" fill="white"/>
<path d="M103.332 26.748C101.351 26.748 99.8522 26.1908 98.8368 25.0763C97.8214 23.937 97.3136 22.3148 97.3136 20.2096V18.7236H101.177V20.5068C101.177 22.191 101.883 23.033 103.295 23.033C103.988 23.033 104.508 22.8349 104.855 22.4386C105.227 22.0176 105.551 21.4232 105.551 20.5068C105.551 19.4171 105.165 18.3893 104.669 17.572C104.174 16.7299 103.258 15.7269 101.92 14.5628C100.236 13.0768 99.0597 11.7394 98.391 10.5506C97.7223 9.33705 97.3879 7.97488 97.3879 6.46411C97.3879 4.40847 97.908 2.8234 98.9483 1.7089C99.9885 0.569634 101.499 0 103.481 0C105.437 0 106.911 0.569634 107.901 1.7089C108.917 2.8234 109.425 4.43324 109.425 6.53841V7.61576H105.561V6.27836C105.561 5.38676 105.388 4.74282 105.041 4.34656C104.694 3.92552 104.186 3.71501 103.518 3.71501C102.156 3.71501 101.345 4.81536 101.345 6.47473C101.345 7.41586 101.722 8.02441 102.217 8.84171C102.738 9.65901 103.666 10.6497 105.004 11.8137C106.713 13.2997 107.889 14.6495 108.533 15.8631C109.177 17.0766 109.499 18.5007 109.499 20.1353C109.499 22.2653 108.966 23.8999 107.901 25.0391C106.861 26.1784 105.338 26.748 103.332 26.748Z" fill="white"/>
<path d="M113.699 0.3715H117.786V11.1185H122.17V0.3715H126.256V26.3765H122.17V14.6743H117.786V26.3765H113.699V0.3715Z" fill="white"/>
<path d="M137.064 26.748C135.058 26.748 133.522 26.1784 132.457 25.0391C131.392 23.8999 130.86 22.29 130.86 20.2096V6.53841C130.86 4.45801 131.392 2.84817 132.457 1.7089C133.522 0.569634 135.058 0 137.064 0C139.07 0 140.606 0.569634 141.671 1.7089C142.735 2.84817 143.268 4.45801 143.268 6.53841V20.2096C143.268 22.29 142.735 23.8999 141.671 25.0391C140.606 26.1784 139.07 26.748 137.064 26.748ZM137.064 22.3962C138.476 22.3962 139.181 22.1786 139.181 20.4697V6.27836C139.181 4.56946 138.476 3.84769 137.064 3.84769C135.652 3.84769 134.946 4.56946 134.946 6.27836V20.4697C134.946 22.1786 135.652 22.3962 137.064 22.3962Z" fill="white"/>
<path d="M147.889 0.3715H153.907C155.938 0.3715 157.461 0.916368 158.477 2.0061C159.492 3.09584 160 4.69329 160 6.79846V9.36181C160 11.467 159.492 13.0644 158.477 14.1542C157.461 15.2439 155.938 15.7888 153.907 15.7888H151.976V26.3765H147.889V0.3715ZM153.907 12.0738C154.576 12.0738 155.393 11.5165 155.393 11.5165C155.393 11.5165 156.407 10.6833 156.407 9.7917C156.407 9.7917 156.407 8.74854 156.407 8.08014C156.407 7.47805 156.407 7.43001 156.407 6.53841C156.407 5.64681 155.393 4.64376 155.393 4.64376C155.393 4.64376 154.576 4.08651 153.907 4.08651H151.976V12.0738H153.907Z" fill="white"/>
</g>
<path d="M2.63673 40.9299H5.02728C4.97977 40.2302 4.80053 39.6882 4.48957 39.3038C4.1786 38.9194 3.74239 38.7272 3.18092 38.7272C2.92178 38.7272 2.69504 38.7661 2.50068 38.8438C2.31065 38.9216 2.14869 39.0231 2.0148 39.1483C1.88523 39.2736 1.77942 39.4183 1.69735 39.5824C1.61961 39.7465 1.56131 39.9128 1.52244 40.0812H0.382229C0.438375 39.6666 0.559306 39.3103 0.745022 39.0123C0.930738 38.71 1.15316 38.4616 1.4123 38.2673C1.67576 38.0686 1.96297 37.9239 2.27394 37.8332C2.5849 37.7382 2.89587 37.6907 3.20683 37.6907C3.70352 37.6907 4.14405 37.7814 4.52844 37.9628C4.91283 38.1399 5.23459 38.3904 5.49373 38.7143C5.75719 39.0382 5.95586 39.4247 6.08975 39.8739C6.22795 40.3231 6.29706 40.8155 6.29706 41.351C6.29706 41.8995 6.22795 42.4005 6.08975 42.854C5.95586 43.3075 5.75719 43.6984 5.49373 44.0266C5.23459 44.3505 4.91283 44.6032 4.52844 44.7846C4.14405 44.966 3.70352 45.0567 3.20683 45.0567C2.84404 45.0567 2.50284 45.007 2.18324 44.9077C1.86795 44.8083 1.58506 44.6572 1.33456 44.4542C1.08838 44.2512 0.876751 43.9942 0.699673 43.6833C0.522595 43.368 0.390867 42.9987 0.304487 42.5754H1.52244C1.54403 42.7871 1.60018 42.9814 1.69088 43.1585C1.78157 43.3356 1.89819 43.4889 2.04071 43.6185C2.18756 43.7437 2.356 43.8431 2.54603 43.9165C2.74039 43.9856 2.9477 44.0201 3.16796 44.0201C3.48325 44.0201 3.7575 43.9553 3.99073 43.8258C4.22395 43.6919 4.41615 43.5213 4.56731 43.314C4.71847 43.1067 4.83077 42.8778 4.90419 42.6273C4.98193 42.3724 5.02296 42.1241 5.02728 41.8822H2.63673V40.9299ZM13.1051 38.941H10.449L10.3971 40.606C10.3712 41.4482 10.3064 42.1522 10.2028 42.718C10.0991 43.2794 9.95661 43.7308 9.77521 44.072C9.59813 44.4132 9.38218 44.655 9.12736 44.7975C8.87254 44.9401 8.58101 45.0113 8.25277 45.0113C8.13184 45.0113 8.02603 44.9919 7.93533 44.953C7.84895 44.9185 7.782 44.8818 7.7345 44.8429V43.7934C7.90294 43.8582 8.05194 43.8906 8.18151 43.8906C8.27221 43.8906 8.35859 43.8754 8.44065 43.8452C8.52703 43.815 8.60693 43.7567 8.68035 43.6703C8.75809 43.5839 8.82935 43.463 8.89414 43.3075C8.95892 43.1477 9.01507 42.9404 9.06258 42.6856C9.11441 42.4308 9.15544 42.1219 9.18567 41.7592C9.22022 41.3964 9.24398 40.9645 9.25693 40.4635L9.31524 37.9045H14.2972V44.8429H13.1051V38.941ZM22.7573 42.6273C22.7097 42.9296 22.6061 43.2254 22.4463 43.5148C22.2865 43.8042 22.077 44.0633 21.8179 44.2922C21.5587 44.5211 21.2521 44.7047 20.8979 44.8429C20.5481 44.9854 20.1594 45.0567 19.7318 45.0567C19.2654 45.0567 18.8335 44.9811 18.4361 44.8299C18.0431 44.6745 17.7019 44.4434 17.4125 44.1367C17.1275 43.8258 16.9029 43.4371 16.7388 42.9706C16.5746 42.5042 16.4926 41.9557 16.4926 41.3251C16.4926 40.9018 16.5379 40.5196 16.6286 40.1784C16.7237 39.8329 16.8489 39.5262 17.0044 39.2585C17.1642 38.9864 17.3477 38.7531 17.5551 38.5588C17.7624 38.3601 17.9805 38.1982 18.2094 38.0729C18.4426 37.9433 18.6801 37.8483 18.922 37.7879C19.1639 37.7231 19.3971 37.6907 19.6217 37.6907C20.0968 37.6907 20.5308 37.7619 20.9239 37.9045C21.3169 38.047 21.6538 38.2651 21.9345 38.5588C22.2195 38.8482 22.4398 39.2131 22.5953 39.6537C22.7551 40.0899 22.835 40.6038 22.835 41.1955V41.7915H17.7624C17.7667 42.1284 17.8142 42.4351 17.9049 42.7115C17.9956 42.9836 18.1252 43.2168 18.2936 43.4112C18.462 43.6055 18.665 43.7567 18.9026 43.8646C19.1444 43.9683 19.4165 44.0201 19.7189 44.0201C20.0255 44.0201 20.2846 43.9769 20.4963 43.8906C20.7079 43.8042 20.885 43.694 21.0275 43.5602C21.17 43.4263 21.2845 43.2773 21.3709 43.1131C21.4616 42.949 21.5371 42.7871 21.5976 42.6273H22.7573ZM21.6365 40.8392C21.6278 40.5023 21.576 40.2022 21.481 39.9387C21.3903 39.6752 21.2607 39.455 21.0923 39.2779C20.9282 39.0965 20.7295 38.9605 20.4963 38.8698C20.263 38.7747 20.0039 38.7272 19.7189 38.7272C19.4468 38.7272 19.1963 38.7812 18.9674 38.8892C18.7385 38.9929 18.5376 39.1397 18.3649 39.3297C18.1921 39.5154 18.0539 39.7379 17.9502 39.997C17.8466 40.2518 17.784 40.5326 17.7624 40.8392H21.6365ZM25.0304 37.9045H26.2224V41.2603L29.7273 37.9045H31.2886L28.0299 40.9688L31.3404 44.8429H29.805L27.097 41.6944L26.2224 42.4264V44.8429H25.0304V37.9045ZM34.9417 38.941H32.5511V37.9045H38.5243V38.941H36.1337V44.8429H34.9417V38.941ZM45.3712 41.364C45.3712 40.9796 45.328 40.6276 45.2416 40.308C45.1553 39.9841 45.0257 39.7055 44.8529 39.4723C44.6802 39.239 44.4664 39.0576 44.2116 38.9281C43.9611 38.7942 43.6695 38.7272 43.337 38.7272C43.0044 38.7272 42.7129 38.7942 42.4624 38.9281C42.2119 39.0576 42.0002 39.239 41.8275 39.4723C41.6547 39.7055 41.5252 39.9841 41.4388 40.308C41.3524 40.6276 41.3092 40.9796 41.3092 41.364C41.3092 41.7527 41.3524 42.1111 41.4388 42.4394C41.5252 42.7633 41.6547 43.0419 41.8275 43.2751C42.0002 43.5083 42.2119 43.6919 42.4624 43.8258C42.7129 43.9553 43.0044 44.0201 43.337 44.0201C43.6695 44.0201 43.9611 43.9553 44.2116 43.8258C44.4664 43.6919 44.6802 43.5083 44.8529 43.2751C45.0257 43.0419 45.1553 42.7633 45.2416 42.4394C45.328 42.1111 45.3712 41.7527 45.3712 41.364ZM46.5632 41.364C46.5632 41.9341 46.4898 42.448 46.343 42.9058C46.1961 43.3593 45.9845 43.7459 45.7081 44.0655C45.4317 44.3851 45.0926 44.6313 44.691 44.804C44.2936 44.9725 43.8423 45.0567 43.337 45.0567C42.8316 45.0567 42.3803 44.9725 41.983 44.804C41.5856 44.6313 41.2487 44.3851 40.9723 44.0655C40.6959 43.7459 40.4843 43.3593 40.3374 42.9058C40.1906 42.448 40.1172 41.9341 40.1172 41.364C40.1172 40.8025 40.1906 40.295 40.3374 39.8415C40.4843 39.388 40.6959 39.0015 40.9723 38.6819C41.2487 38.3623 41.5856 38.1183 41.983 37.9498C42.3803 37.7771 42.8316 37.6907 43.337 37.6907C43.8423 37.6907 44.2936 37.7771 44.691 37.9498C45.0926 38.1183 45.4317 38.3623 45.7081 38.6819C45.9845 39.0015 46.1961 39.388 46.343 39.8415C46.4898 40.295 46.5632 40.8025 46.5632 41.364ZM48.642 37.9045H49.8341V38.8568H49.86C49.9377 38.697 50.0349 38.5458 50.1515 38.4033C50.2725 38.2608 50.415 38.1377 50.5791 38.034C50.7475 37.9261 50.9397 37.8418 51.1557 37.7814C51.376 37.7209 51.6265 37.6907 51.9072 37.6907C52.2786 37.6907 52.6349 37.7619 52.9761 37.9045C53.3173 38.047 53.6197 38.2608 53.8831 38.5458C54.1466 38.8309 54.356 39.1894 54.5115 39.6213C54.667 40.0488 54.7447 40.5477 54.7447 41.1178C54.7447 41.8304 54.6713 42.4372 54.5245 42.9382C54.382 43.4349 54.1768 43.8409 53.909 44.1562C53.6456 44.4715 53.326 44.7004 52.9502 44.8429C52.5745 44.9854 52.1555 45.0567 51.6934 45.0567C51.4645 45.0567 51.2507 45.0265 51.052 44.966C50.8534 44.9055 50.6741 44.8278 50.5143 44.7328C50.3588 44.6334 50.2249 44.5255 50.1127 44.4088C50.0004 44.2879 49.9161 44.1713 49.86 44.059H49.8341V47.5768H48.642V37.9045ZM49.8082 41.4093C49.8082 41.7851 49.8449 42.1327 49.9183 42.4523C49.9917 42.7676 50.104 43.0419 50.2552 43.2751C50.4107 43.5083 50.6029 43.6919 50.8318 43.8258C51.065 43.9553 51.3392 44.0201 51.6545 44.0201C51.9828 44.0201 52.2657 43.9553 52.5032 43.8258C52.7451 43.6919 52.9437 43.5083 53.0992 43.2751C53.2547 43.0419 53.3692 42.7676 53.4426 42.4523C53.516 42.1327 53.5527 41.7851 53.5527 41.4093C53.5527 41.0163 53.516 40.6557 53.4426 40.3274C53.3692 39.9992 53.2547 39.7163 53.0992 39.4787C52.9437 39.2412 52.7451 39.0576 52.5032 38.9281C52.2657 38.7942 51.9828 38.7272 51.6545 38.7272C51.3392 38.7272 51.065 38.7942 50.8318 38.9281C50.6029 39.0576 50.4107 39.2412 50.2552 39.4787C50.104 39.7163 49.9917 39.9992 49.9183 40.3274C49.8449 40.6557 49.8082 41.0163 49.8082 41.4093ZM56.8883 37.9045H58.0804V40.7032H61.3196V37.9045H62.5181V44.8429H61.3196V41.7397H58.0804V44.8429H56.8883V37.9045ZM65.0698 37.9045H66.2619V40.7032H69.5011V37.9045H70.6996V44.8429H69.5011V41.7397H66.2619V44.8429H65.0698V37.9045ZM79.8853 37.9045H81.0773V44.8429H79.8853V37.9045ZM73.2514 37.9045H74.4434V40.5153H76.5295C76.9052 40.5153 77.2421 40.5671 77.5401 40.6708C77.8424 40.7701 78.0972 40.9148 78.3045 41.1048C78.5119 41.2905 78.6695 41.5173 78.7775 41.7851C78.8898 42.0485 78.9459 42.3465 78.9459 42.6791C78.9459 43.016 78.8898 43.3183 78.7775 43.5861C78.6695 43.8495 78.5119 44.0763 78.3045 44.2663C78.0972 44.452 77.8424 44.5946 77.5401 44.6939C77.2421 44.7932 76.9052 44.8429 76.5295 44.8429H73.2514V37.9045ZM74.4434 43.8906H76.2897C76.4971 43.8906 76.6893 43.869 76.8663 43.8258C77.0477 43.7826 77.2032 43.7135 77.3328 43.6185C77.4623 43.5191 77.5638 43.3939 77.6373 43.2427C77.7107 43.0872 77.7474 42.8994 77.7474 42.6791C77.7474 42.4631 77.7085 42.2796 77.6308 42.1284C77.5574 41.9773 77.4516 41.8542 77.3133 41.7592C77.1795 41.6598 77.0153 41.5886 76.821 41.5454C76.6309 41.4979 76.4193 41.4741 76.1861 41.4741H74.4434V43.8906ZM89.5439 42.6273C89.4964 42.9296 89.3927 43.2254 89.2329 43.5148C89.0731 43.8042 88.8637 44.0633 88.6045 44.2922C88.3454 44.5211 88.0387 44.7047 87.6846 44.8429C87.3347 44.9854 86.946 45.0567 86.5185 45.0567C86.052 45.0567 85.6201 44.9811 85.2228 44.8299C84.8297 44.6745 84.4885 44.4434 84.1992 44.1367C83.9141 43.8258 83.6895 43.4371 83.5254 42.9706C83.3613 42.5042 83.2792 41.9557 83.2792 41.3251C83.2792 40.9018 83.3246 40.5196 83.4153 40.1784C83.5103 39.8329 83.6355 39.5262 83.791 39.2585C83.9508 38.9864 84.1344 38.7531 84.3417 38.5588C84.549 38.3601 84.7671 38.1982 84.996 38.0729C85.2292 37.9433 85.4668 37.8483 85.7086 37.7879C85.9505 37.7231 86.1837 37.6907 86.4083 37.6907C86.8834 37.6907 87.3175 37.7619 87.7105 37.9045C88.1035 38.047 88.4404 38.2651 88.7211 38.5588C89.0062 38.8482 89.2264 39.2131 89.3819 39.6537C89.5417 40.0899 89.6216 40.6038 89.6216 41.1955V41.7915H84.549C84.5533 42.1284 84.6008 42.4351 84.6915 42.7115C84.7822 42.9836 84.9118 43.2168 85.0802 43.4112C85.2487 43.6055 85.4517 43.7567 85.6892 43.8646C85.9311 43.9683 86.2032 44.0201 86.5055 44.0201C86.8121 44.0201 87.0713 43.9769 87.2829 43.8906C87.4945 43.8042 87.6716 43.694 87.8141 43.5602C87.9567 43.4263 88.0711 43.2773 88.1575 43.1131C88.2482 42.949 88.3238 42.7871 88.3842 42.6273H89.5439ZM88.4231 40.8392C88.4145 40.5023 88.3627 40.2022 88.2676 39.9387C88.1769 39.6752 88.0474 39.455 87.8789 39.2779C87.7148 39.0965 87.5161 38.9605 87.2829 38.8698C87.0497 38.7747 86.7905 38.7272 86.5055 38.7272C86.2334 38.7272 85.9829 38.7812 85.754 38.8892C85.5251 38.9929 85.3243 39.1397 85.1515 39.3297C84.9787 39.5154 84.8405 39.7379 84.7369 39.997C84.6332 40.2518 84.5706 40.5326 84.549 40.8392H88.4231ZM101.761 42.4005C101.743 42.569 101.709 42.7525 101.657 42.9512C101.61 43.1499 101.538 43.3485 101.443 43.5472C101.348 43.7416 101.225 43.9294 101.074 44.1108C100.927 44.2922 100.746 44.4542 100.53 44.5967C100.318 44.7349 100.068 44.8451 99.7783 44.9271C99.4889 45.0135 99.1585 45.0567 98.7871 45.0567C98.5841 45.0567 98.3703 45.0308 98.1457 44.9789C97.9211 44.9314 97.7009 44.8494 97.4849 44.7328C97.2733 44.6161 97.0703 44.4671 96.8759 44.2857C96.6859 44.1 96.5175 43.8711 96.3706 43.599C96.2281 43.3269 96.1136 43.0117 96.0273 42.6532C95.9409 42.2904 95.8977 41.8758 95.8977 41.4093C95.8977 40.8349 95.9798 40.3188 96.1439 39.861C96.308 39.3988 96.5261 39.008 96.7982 38.6884C97.0746 38.3688 97.3942 38.1226 97.757 37.9498C98.1241 37.7771 98.5085 37.6907 98.9102 37.6907C99.273 37.6907 99.5926 37.7296 99.869 37.8073C100.15 37.885 100.394 37.9887 100.601 38.1183C100.808 38.2478 100.983 38.399 101.126 38.5718C101.268 38.7402 101.383 38.9194 101.469 39.1095C101.56 39.2952 101.627 39.4852 101.67 39.6796C101.718 39.8739 101.748 40.0596 101.761 40.2367H100.646C100.586 39.7659 100.422 39.3967 100.154 39.1289C99.8906 38.8611 99.5192 38.7272 99.0398 38.7272C98.7115 38.7272 98.4243 38.7942 98.1781 38.9281C97.9363 39.062 97.7333 39.2498 97.5691 39.4917C97.4093 39.7292 97.2884 40.0186 97.2063 40.3598C97.1286 40.6967 97.0897 41.0681 97.0897 41.4741C97.0897 41.9319 97.1329 42.3271 97.2193 42.6597C97.3057 42.9879 97.4288 43.26 97.5886 43.4759C97.7484 43.6876 97.9427 43.8452 98.1716 43.9489C98.4049 44.0482 98.6683 44.0979 98.962 44.0979C99.1693 44.0979 99.3658 44.0612 99.5515 43.9877C99.7373 43.91 99.9035 43.7999 100.05 43.6573C100.197 43.5105 100.322 43.3313 100.426 43.1196C100.53 42.908 100.603 42.6683 100.646 42.4005H101.761ZM103.736 37.9045H104.928V43.2233H104.954L108.361 37.9045H109.728V44.8429H108.53V39.5241H108.504L105.103 44.8429H103.736V37.9045ZM112.28 37.9045H116.588V38.941H113.472V44.8429H112.28V37.9045ZM118.414 39.9841C118.427 39.5608 118.507 39.2045 118.654 38.9151C118.801 38.6214 119 38.3839 119.25 38.2025C119.501 38.0211 119.797 37.8915 120.138 37.8138C120.483 37.7317 120.859 37.6907 121.265 37.6907C121.602 37.6907 121.928 37.7252 122.243 37.7943C122.563 37.8634 122.846 37.9757 123.092 38.1312C123.338 38.2824 123.535 38.4811 123.681 38.7272C123.833 38.9691 123.908 39.2649 123.908 39.6148V43.6509C123.908 43.7632 123.938 43.8603 123.999 43.9424C124.059 44.0201 124.157 44.059 124.29 44.059C124.351 44.059 124.414 44.0547 124.478 44.046C124.543 44.0331 124.61 44.0201 124.679 44.0072V44.8299C124.58 44.8559 124.48 44.8796 124.381 44.9012C124.286 44.9228 124.172 44.9336 124.038 44.9336C123.83 44.9336 123.651 44.9163 123.5 44.8818C123.353 44.8472 123.228 44.7911 123.124 44.7133C123.025 44.6313 122.947 44.5276 122.891 44.4024C122.835 44.2728 122.798 44.1151 122.781 43.9294C122.634 44.0892 122.479 44.2382 122.314 44.3764C122.15 44.5103 121.967 44.6291 121.764 44.7328C121.561 44.8321 121.334 44.9098 121.084 44.966C120.833 45.0265 120.55 45.0567 120.235 45.0567C119.967 45.0567 119.706 45.0135 119.451 44.9271C119.201 44.8407 118.974 44.7133 118.771 44.5449C118.572 44.3764 118.412 44.1691 118.291 43.923C118.17 43.6725 118.11 43.3831 118.11 43.0548C118.11 42.6964 118.17 42.3876 118.291 42.1284C118.412 41.865 118.57 41.6469 118.764 41.4741C118.959 41.297 119.181 41.161 119.432 41.066C119.682 40.9709 119.937 40.9083 120.196 40.8781L122.146 40.6384C122.332 40.6168 122.476 40.5455 122.58 40.4246C122.688 40.2993 122.742 40.1007 122.742 39.8286C122.742 39.4096 122.604 39.1095 122.327 38.9281C122.055 38.7424 121.662 38.6495 121.148 38.6495C120.621 38.6495 120.228 38.7618 119.969 38.9864C119.71 39.2066 119.563 39.5392 119.529 39.9841H118.414ZM122.716 41.3121C122.621 41.3812 122.502 41.4395 122.36 41.4871C122.222 41.5302 122.068 41.567 121.9 41.5972C121.731 41.6274 121.552 41.6555 121.362 41.6814C121.172 41.703 120.982 41.7268 120.792 41.7527C120.576 41.7829 120.377 41.8261 120.196 41.8822C120.015 41.9384 119.857 42.0118 119.723 42.1025C119.589 42.1932 119.486 42.3033 119.412 42.4329C119.339 42.5582 119.302 42.7072 119.302 42.8799C119.302 43.0786 119.332 43.2535 119.393 43.4047C119.457 43.5558 119.544 43.6833 119.652 43.7869C119.764 43.8906 119.898 43.9683 120.054 44.0201C120.209 44.072 120.38 44.0979 120.565 44.0979C120.682 44.0979 120.816 44.0849 120.967 44.059C121.118 44.0288 121.274 43.9856 121.433 43.9294C121.593 43.8733 121.749 43.802 121.9 43.7156C122.055 43.6249 122.194 43.517 122.314 43.3917C122.435 43.2665 122.533 43.1239 122.606 42.9641C122.679 42.8043 122.716 42.6251 122.716 42.4264V41.3121ZM126.544 37.9045H127.736V38.8568H127.762C127.84 38.697 127.937 38.5458 128.054 38.4033C128.175 38.2608 128.317 38.1377 128.481 38.034C128.65 37.9261 128.842 37.8418 129.058 37.7814C129.278 37.7209 129.529 37.6907 129.809 37.6907C130.181 37.6907 130.537 37.7619 130.878 37.9045C131.219 38.047 131.522 38.2608 131.785 38.5458C132.049 38.8309 132.258 39.1894 132.414 39.6213C132.569 40.0488 132.647 40.5477 132.647 41.1178C132.647 41.8304 132.573 42.4372 132.427 42.9382C132.284 43.4349 132.079 43.8409 131.811 44.1562C131.548 44.4715 131.228 44.7004 130.852 44.8429C130.477 44.9854 130.058 45.0567 129.596 45.0567C129.367 45.0567 129.153 45.0265 128.954 44.966C128.755 44.9055 128.576 44.8278 128.416 44.7328C128.261 44.6334 128.127 44.5255 128.015 44.4088C127.902 44.2879 127.818 44.1713 127.762 44.059H127.736V47.5768H126.544V37.9045ZM127.71 41.4093C127.71 41.7851 127.747 42.1327 127.82 42.4523C127.894 42.7676 128.006 43.0419 128.157 43.2751C128.313 43.5083 128.505 43.6919 128.734 43.8258C128.967 43.9553 129.241 44.0201 129.557 44.0201C129.885 44.0201 130.168 43.9553 130.405 43.8258C130.647 43.6919 130.846 43.5083 131.001 43.2751C131.157 43.0419 131.271 42.7676 131.345 42.4523C131.418 42.1327 131.455 41.7851 131.455 41.4093C131.455 41.0163 131.418 40.6557 131.345 40.3274C131.271 39.9992 131.157 39.7163 131.001 39.4787C130.846 39.2412 130.647 39.0576 130.405 38.9281C130.168 38.7942 129.885 38.7272 129.557 38.7272C129.241 38.7272 128.967 38.7942 128.734 38.9281C128.505 39.0576 128.313 39.2412 128.157 39.4787C128.006 39.7163 127.894 39.9992 127.82 40.3274C127.747 40.6557 127.71 41.0163 127.71 41.4093ZM140.699 42.6273C140.651 42.9296 140.548 43.2254 140.388 43.5148C140.228 43.8042 140.019 44.0633 139.759 44.2922C139.5 44.5211 139.194 44.7047 138.839 44.8429C138.49 44.9854 138.101 45.0567 137.673 45.0567C137.207 45.0567 136.775 44.9811 136.378 44.8299C135.985 44.6745 135.643 44.4434 135.354 44.1367C135.069 43.8258 134.844 43.4371 134.68 42.9706C134.516 42.5042 134.434 41.9557 134.434 41.3251C134.434 40.9018 134.479 40.5196 134.57 40.1784C134.665 39.8329 134.79 39.5262 134.946 39.2585C135.106 38.9864 135.289 38.7531 135.497 38.5588C135.704 38.3601 135.922 38.1982 136.151 38.0729C136.384 37.9433 136.622 37.8483 136.864 37.7879C137.105 37.7231 137.339 37.6907 137.563 37.6907C138.038 37.6907 138.472 37.7619 138.865 37.9045C139.258 38.047 139.595 38.2651 139.876 38.5588C140.161 38.8482 140.381 39.2131 140.537 39.6537C140.697 40.0899 140.777 40.6038 140.777 41.1955V41.7915H135.704C135.708 42.1284 135.756 42.4351 135.846 42.7115C135.937 42.9836 136.067 43.2168 136.235 43.4112C136.404 43.6055 136.607 43.7567 136.844 43.8646C137.086 43.9683 137.358 44.0201 137.66 44.0201C137.967 44.0201 138.226 43.9769 138.438 43.8906C138.649 43.8042 138.827 43.694 138.969 43.5602C139.112 43.4263 139.226 43.2773 139.312 43.1131C139.403 42.949 139.479 42.7871 139.539 42.6273H140.699ZM139.578 40.8392C139.569 40.5023 139.518 40.2022 139.423 39.9387C139.332 39.6752 139.202 39.455 139.034 39.2779C138.87 39.0965 138.671 38.9605 138.438 38.8698C138.205 38.7747 137.945 38.7272 137.66 38.7272C137.388 38.7272 137.138 38.7812 136.909 38.8892C136.68 38.9929 136.479 39.1397 136.306 39.3297C136.134 39.5154 135.995 39.7379 135.892 39.997C135.788 40.2518 135.725 40.5326 135.704 40.8392H139.578ZM144.818 38.941H142.428V37.9045H148.401V38.941H146.01V44.8429H144.818V38.941ZM157.036 37.9045H158.228V44.8429H157.036V37.9045ZM150.402 37.9045H151.594V40.5153H153.68C154.056 40.5153 154.393 40.5671 154.691 40.6708C154.993 40.7701 155.248 40.9148 155.455 41.1048C155.662 41.2905 155.82 41.5173 155.928 41.7851C156.04 42.0485 156.097 42.3465 156.097 42.6791C156.097 43.016 156.04 43.3183 155.928 43.5861C155.82 43.8495 155.662 44.0763 155.455 44.2663C155.248 44.452 154.993 44.5946 154.691 44.6939C154.393 44.7932 154.056 44.8429 153.68 44.8429H150.402V37.9045ZM151.594 43.8906H153.44C153.648 43.8906 153.84 43.869 154.017 43.8258C154.198 43.7826 154.354 43.7135 154.483 43.6185C154.613 43.5191 154.714 43.3939 154.788 43.2427C154.861 43.0872 154.898 42.8994 154.898 42.6791C154.898 42.4631 154.859 42.2796 154.781 42.1284C154.708 41.9773 154.602 41.8542 154.464 41.7592C154.33 41.6598 154.166 41.5886 153.972 41.5454C153.782 41.4979 153.57 41.4741 153.337 41.4741H151.594V43.8906Z" fill="white"/>
<defs>
<filter id="filter0_d_5_24" x="-5.30715" y="-2.65357" width="173.268" height="40.0159" filterUnits="userSpaceOnUse" color-interpolation-filters="sRGB">
<feFlood flood-opacity="0" result="BackgroundImageFix"/>
<feColorMatrix in="SourceAlpha" type="matrix" values="0 0 0 0 0 0 0 0 0 0 0 0 0 0 0 0 0 0 127 0" result="hardAlpha"/>
<feOffset dx="1.32679" dy="3.98036"/>
<feGaussianBlur stdDeviation="3.31697"/>
<feComposite in2="hardAlpha" operator="out"/>
<feColorMatrix type="matrix" values="0 0 0 0 0.6 0 0 0 0 0.901961 0 0 0 0 1 0 0 0 0.15 0"/>
<feBlend mode="normal" in2="BackgroundImageFix" result="effect1_dropShadow_5_24"/>
<feBlend mode="normal" in="SourceGraphic" in2="effect1_dropShadow_5_24" result="shape"/>
</filter>
</defs>
</svg>
