<svg width="23" height="23" viewBox="0 0 23 23" fill="none" xmlns="http://www.w3.org/2000/svg">
<path d="M21.1942 0.958475C20.8832 0.972194 20.5935 1.06277 20.3384 1.16588C20.0995 1.26199 19.1866 1.65352 17.7487 2.27015C16.3096 2.88731 14.404 3.70544 12.3712 4.57959C8.30571 6.3279 3.73501 8.29588 1.39389 9.30311C1.30585 9.34098 0.99868 9.43911 0.672653 9.69363C0.346627 9.94815 0 10.4756 0 11.0632C0 11.5371 0.225837 12.0079 0.510096 12.2889C0.794354 12.57 1.09514 12.7089 1.35278 12.814C2.2876 13.1954 5.18688 14.3819 5.73437 14.6059C5.92705 15.1961 6.97645 18.4062 7.21981 19.193C7.38024 19.7122 7.53295 20.0373 7.73178 20.2954C7.83119 20.4244 7.94675 20.5375 8.08679 20.6261C8.14276 20.6615 8.20414 20.6888 8.26616 20.7139L8.2699 20.7158C8.28419 20.7215 8.29651 20.7313 8.31101 20.7364C8.33835 20.7459 8.35664 20.7471 8.39322 20.755C8.53894 20.8021 8.68607 20.8316 8.81737 20.8316C9.37717 20.8316 9.71984 20.5233 9.71984 20.5233L9.7404 20.5084L12.6197 18.0177L16.1119 21.3212C16.1611 21.3907 16.6197 22.02 17.631 22.02C18.2315 22.02 18.7078 21.7187 19.0137 21.3978C19.3195 21.0769 19.51 20.7398 19.591 20.3159V20.3141C19.6668 19.9136 22.8852 3.39124 22.8852 3.39124L22.8796 3.41366C22.9738 2.98363 22.9985 2.58314 22.8945 2.18794C22.7905 1.79273 22.5166 1.41434 22.177 1.21072C21.8374 1.00715 21.5052 0.944755 21.1942 0.958475ZM21.0148 2.95775C21.0102 2.98567 21.0183 2.97163 21.0111 3.00446L21.0092 3.01567L21.0073 3.02688C21.0073 3.02688 17.8288 19.3379 17.7113 19.9591C17.7199 19.9122 17.6806 20.0054 17.6403 20.0618C17.5834 20.0226 17.4666 19.9721 17.4666 19.9721L17.4479 19.9516L12.6776 15.4392L9.30504 18.354L10.3084 14.3368C10.3084 14.3368 16.5805 7.84428 16.9583 7.4664C17.2626 7.16409 17.3264 7.05871 17.3264 6.95443C17.3264 6.81476 17.2536 6.7134 17.091 6.7134C16.9446 6.7134 16.7478 6.8557 16.6426 6.92267C15.2716 7.79662 9.25267 11.3046 6.55463 12.8738C6.12587 12.6983 3.1471 11.479 2.13754 11.067C2.14519 11.0636 2.14267 11.0648 2.15062 11.0614C4.49236 10.0539 9.06115 8.08589 13.1261 6.33783C15.1585 5.46381 17.0656 4.64505 18.5036 4.02839C19.9194 3.42122 20.9032 3.00336 21.0148 2.95775Z" fill="white"/>
</svg>
